<?xml version="1.0" encoding="utf-8"?>
<!-- Generator: Adobe Illustrator 13.0.0, SVG Export Plug-In . SVG Version: 6.00 Build 14948)  -->
<!DOCTYPE svg PUBLIC "-//W3C//DTD SVG 1.1//EN" "http://www.w3.org/Graphics/SVG/1.1/DTD/svg11.dtd">
<svg version="1.1" id="Layer_1" xmlns="http://www.w3.org/2000/svg" xmlns:xlink="http://www.w3.org/1999/xlink" x="0px" y="0px"
	 width="59px" height="59px" viewBox="0 0 59 59" enable-background="new 0 0 59 59" xml:space="preserve">
<g>
	<path fill="#00AD66" d="M23.113,41.551l-9.915-10.707c-1.406-1.513-1.314-3.875,0.2-5.279l0,0c1.513-1.403,3.875-1.312,5.278,0.202
		l0,0l7.12,7.688l13.804-15.506c1.372-1.541,3.731-1.681,5.274-0.308l0,0c1.541,1.372,1.68,3.733,0.31,5.275l0,0l-16.539,18.58
		c-0.701,0.791-1.7,1.242-2.757,1.252l0,0c-0.011,0-0.022,0-0.032,0l0,0C24.816,42.747,23.821,42.315,23.113,41.551L23.113,41.551z"
		/>
	<path fill="#00CC66" d="M0.5,29.719C0.502,13.583,13.582,0.504,29.719,0.5l0,0c16.135,0.004,29.218,13.083,29.222,29.219l0,0
		c-0.004,16.14-13.087,29.221-29.222,29.223l0,0C13.582,58.938,0.502,45.858,0.5,29.719L0.5,29.719z M4.529,29.719
		c0.026,13.912,11.282,25.163,25.19,25.188l0,0c13.911-0.025,25.163-11.276,25.188-25.188l0,0
		C54.882,15.811,43.63,4.556,29.719,4.532l0,0C15.81,4.556,4.556,15.811,4.529,29.719L4.529,29.719z"/>
</g>
</svg>
