<?xml version="1.0" encoding="utf-8"?>
<!-- Generator: Adobe Illustrator 13.0.0, SVG Export Plug-In  -->
<!DOCTYPE svg PUBLIC "-//W3C//DTD SVG 1.1//EN" "http://www.w3.org/Graphics/SVG/1.1/DTD/svg11.dtd" [
	<!ENTITY ns_flows "http://ns.adobe.com/Flows/1.0/">
]>
<svg version="1.1"
	 xmlns="http://www.w3.org/2000/svg" xmlns:xlink="http://www.w3.org/1999/xlink" xmlns:a="http://ns.adobe.com/AdobeSVGViewerExtensions/3.0/"
	 x="0px" y="0px" width="61px" height="61px" viewBox="-6.687 -9.392 61 61" enable-background="new -6.687 -9.392 61 61"
	 xml:space="preserve">
<defs>
</defs>
<path fill="#FFFFFF" d="M37.63,23.91c-0.35,0-0.699,0.128-0.974,0.387l0.001,0.003L25.101,35.267V9.569
	c0-0.783-0.635-1.414-1.416-1.414c-0.781,0-1.415,0.631-1.415,1.414v25.698L10.715,24.299c-0.567-0.538-1.463-0.516-2.001,0.05
	C8.177,24.917,8.2,25.813,8.768,26.35l13.943,13.236c0.008,0.008,0.019,0.01,0.025,0.017c0.123,0.111,0.264,0.203,0.418,0.266
	c0.019,0.008,0.038,0.011,0.057,0.018c0.141,0.051,0.291,0.082,0.448,0.085c0.02,0,0.037,0,0.057-0.001
	c0.154-0.003,0.301-0.033,0.439-0.082c0.021-0.008,0.043-0.012,0.064-0.021c0.154-0.063,0.291-0.154,0.413-0.265
	c0.008-0.007,0.019-0.009,0.026-0.017l13.947-13.235c0.564-0.538,0.588-1.435,0.051-2.002C38.38,24.059,38.005,23.91,37.63,23.91z
	 M0.41,18.009c0.264,0.262,0.631,0.414,1.002,0.414H7.46c0.781,0,1.412-0.635,1.412-1.416c0-0.779-0.631-1.414-1.412-1.414H2.829
	V2.831h41.717v12.762H39.77c-0.78,0-1.414,0.635-1.414,1.414c0,0.781,0.634,1.416,1.414,1.416h6.188
	c0.373,0,0.739-0.152,1.003-0.414c0.265-0.265,0.416-0.628,0.416-1.002V1.415c0-0.373-0.154-0.736-0.418-1
	C46.696,0.151,46.331,0,45.958,0H1.412C1.035,0,0.679,0.149,0.414,0.415C0.145,0.68,0,1.037,0,1.415v15.592
	C0,17.381,0.149,17.744,0.41,18.009z"/>
</svg>
