<?xml version="1.0" encoding="utf-8"?>
<!-- Generator: Adobe Illustrator 13.0.0, SVG Export Plug-In  -->
<!DOCTYPE svg PUBLIC "-//W3C//DTD SVG 1.1//EN" "http://www.w3.org/Graphics/SVG/1.1/DTD/svg11.dtd" [
	<!ENTITY ns_flows "http://ns.adobe.com/Flows/1.0/">
]>
<svg version="1.1"
	 xmlns="http://www.w3.org/2000/svg" xmlns:xlink="http://www.w3.org/1999/xlink" xmlns:a="http://ns.adobe.com/AdobeSVGViewerExtensions/3.0/"
	 x="0px" y="0px" width="156px" height="32px" viewBox="0 0 156 32" enable-background="new 0 0 156 32" xml:space="preserve">
<defs>
</defs>
<path fill="#222222" d="M52.08,18.979v4.896h-2.861V9.982h5.42c1.043,0,1.961,0.19,2.752,0.572c0.793,0.383,1.4,0.924,1.828,1.628
	c0.426,0.702,0.639,1.502,0.639,2.399c0,1.36-0.467,2.434-1.396,3.219c-0.934,0.786-2.223,1.179-3.869,1.179H52.08z M52.08,16.661
	h2.559c0.756,0,1.334-0.178,1.732-0.534c0.396-0.356,0.596-0.865,0.596-1.525c0-0.682-0.201-1.232-0.602-1.652
	c-0.4-0.419-0.953-0.635-1.66-0.648H52.08V16.661z"/>
<path fill="#222222" d="M63.668,14.678c0.732-0.879,1.65-1.317,2.758-1.317c2.238,0,3.373,1.3,3.406,3.903v6.611h-2.758V17.34
	c0-0.593-0.127-1.03-0.381-1.313c-0.256-0.282-0.678-0.424-1.27-0.424c-0.809,0-1.393,0.311-1.756,0.935v7.338H60.91V9.22h2.758
	V14.678z"/>
<path fill="#222222" d="M70.816,18.617c0-1.024,0.199-1.937,0.594-2.738s0.961-1.422,1.703-1.86c0.74-0.44,1.6-0.658,2.58-0.658
	c1.393,0,2.529,0.426,3.412,1.278c0.881,0.852,1.371,2.01,1.473,3.472l0.02,0.708c0,1.583-0.441,2.854-1.326,3.812
	c-0.885,0.957-2.07,1.436-3.559,1.436s-2.678-0.478-3.564-1.431c-0.887-0.955-1.332-2.252-1.332-3.894V18.617z M73.574,18.813
	c0,0.98,0.186,1.729,0.555,2.251c0.369,0.518,0.896,0.777,1.584,0.777c0.668,0,1.189-0.256,1.564-0.769
	c0.375-0.514,0.563-1.333,0.563-2.461c0-0.962-0.188-1.707-0.563-2.235c-0.375-0.529-0.902-0.793-1.584-0.793
	c-0.674,0-1.195,0.263-1.564,0.788S73.574,17.711,73.574,18.813z"/>
<path fill="#222222" d="M84.934,11.014v2.537h1.764v2.022h-1.764v5.153c0,0.381,0.072,0.654,0.219,0.819
	c0.146,0.166,0.426,0.248,0.84,0.248c0.305,0,0.576-0.021,0.811-0.066v2.091c-0.541,0.164-1.096,0.247-1.668,0.247
	c-1.936,0-2.922-0.977-2.959-2.929v-5.563h-1.508v-2.022h1.508v-2.537H84.934z"/>
<path fill="#222222" d="M86.854,18.617c0-1.024,0.197-1.937,0.592-2.738s0.963-1.422,1.703-1.86c0.742-0.44,1.602-0.658,2.582-0.658
	c1.393,0,2.529,0.426,3.41,1.278c0.881,0.852,1.373,2.01,1.475,3.472l0.02,0.708c0,1.583-0.443,2.854-1.326,3.812
	c-0.885,0.957-2.07,1.436-3.559,1.436c-1.49,0-2.678-0.478-3.564-1.431c-0.887-0.955-1.332-2.252-1.332-3.894V18.617z
	 M89.611,18.813c0,0.98,0.184,1.729,0.553,2.251c0.371,0.518,0.898,0.777,1.586,0.777c0.666,0,1.189-0.256,1.564-0.769
	c0.375-0.514,0.563-1.333,0.563-2.461c0-0.962-0.188-1.707-0.563-2.235c-0.375-0.529-0.904-0.793-1.584-0.793
	c-0.676,0-1.195,0.263-1.566,0.788C89.795,16.897,89.611,17.711,89.611,18.813z"/>
<path fill="#222222" d="M105.053,20.23c0-0.541-0.189-0.956-0.572-1.246c-0.381-0.289-1.068-0.594-2.061-0.916
	c-0.992-0.32-1.779-0.638-2.355-0.949c-1.58-0.853-2.367-2-2.367-3.443c0-0.752,0.211-1.421,0.633-2.009
	c0.424-0.589,1.031-1.049,1.824-1.379c0.791-0.331,1.68-0.496,2.666-0.496c0.992,0,1.877,0.179,2.652,0.538
	c0.775,0.36,1.379,0.867,1.809,1.522s0.643,1.4,0.643,2.232h-2.861c0-0.636-0.199-1.131-0.602-1.483
	c-0.4-0.354-0.963-0.529-1.688-0.529c-0.701,0-1.244,0.148-1.633,0.442c-0.389,0.296-0.582,0.686-0.582,1.17
	c0,0.452,0.229,0.83,0.684,1.136c0.453,0.305,1.123,0.592,2.008,0.858c1.627,0.489,2.814,1.097,3.559,1.821s1.115,1.63,1.115,2.711
	c0,1.202-0.453,2.146-1.363,2.828c-0.91,0.685-2.135,1.026-3.674,1.026c-1.068,0-2.041-0.196-2.92-0.587
	c-0.877-0.391-1.547-0.927-2.008-1.608c-0.461-0.679-0.691-1.469-0.691-2.365h2.873c0,1.532,0.916,2.299,2.746,2.299
	c0.682,0,1.213-0.138,1.594-0.415C104.863,21.112,105.053,20.727,105.053,20.23z"/>
<path fill="#222222" d="M118.309,18.808c0,1.591-0.359,2.864-1.082,3.822c-0.723,0.957-1.697,1.436-2.924,1.436
	c-1.045,0-1.887-0.363-2.529-1.088v4.866h-2.758V13.551h2.557l0.096,1.012c0.668-0.802,1.539-1.202,2.615-1.202
	c1.271,0,2.262,0.47,2.967,1.412c0.707,0.941,1.059,2.239,1.059,3.893V18.808z M115.553,18.607c0-0.959-0.172-1.701-0.512-2.223
	c-0.34-0.522-0.834-0.782-1.484-0.782c-0.863,0-1.459,0.33-1.783,0.991v4.228c0.336,0.681,0.938,1.021,1.803,1.021
	C114.893,21.842,115.553,20.765,115.553,18.607z"/>
<path fill="#222222" d="M122.264,23.875h-2.768V9.22h2.768V23.875z"/>
<path fill="#222222" d="M123.85,10.88c0-0.414,0.139-0.754,0.416-1.022c0.277-0.267,0.652-0.399,1.131-0.399
	c0.471,0,0.846,0.133,1.125,0.399c0.281,0.269,0.42,0.608,0.42,1.022c0,0.419-0.141,0.763-0.424,1.029
	c-0.283,0.268-0.656,0.401-1.121,0.401s-0.838-0.134-1.121-0.401C123.992,11.643,123.85,11.299,123.85,10.88z M126.779,23.875
	h-2.766V13.551h2.766V23.875z"/>
<path fill="#222222" d="M131.688,11.014v2.537h1.766v2.022h-1.766v5.153c0,0.381,0.072,0.654,0.219,0.819
	c0.146,0.166,0.426,0.248,0.84,0.248c0.305,0,0.576-0.021,0.811-0.066v2.091c-0.541,0.164-1.098,0.247-1.668,0.247
	c-1.936,0-2.92-0.977-2.959-2.929v-5.563h-1.508v-2.022h1.508v-2.537H131.688z"/>
<path fill="#222222" d="M137.625,11.014v2.537h1.766v2.022h-1.766v5.153c0,0.381,0.072,0.654,0.221,0.819
	c0.146,0.166,0.426,0.248,0.84,0.248c0.305,0,0.574-0.021,0.811-0.066v2.091c-0.541,0.164-1.098,0.247-1.67,0.247
	c-1.934,0-2.92-0.977-2.957-2.929v-5.563h-1.51v-2.022h1.51v-2.537H137.625z"/>
<path fill="#222222" d="M145.014,24.065c-1.514,0-2.746-0.465-3.697-1.393c-0.951-0.93-1.426-2.167-1.426-3.713v-0.267
	c0-1.037,0.201-1.963,0.602-2.781c0.4-0.817,0.967-1.447,1.701-1.889c0.736-0.442,1.574-0.663,2.516-0.663
	c1.412,0,2.523,0.444,3.334,1.336c0.811,0.89,1.217,2.153,1.217,3.787v1.126h-6.574c0.09,0.674,0.357,1.215,0.807,1.622
	c0.449,0.408,1.016,0.61,1.703,0.61c1.063,0,1.893-0.385,2.49-1.153l1.355,1.517c-0.414,0.586-0.975,1.041-1.68,1.369
	C146.654,23.901,145.873,24.065,145.014,24.065z M144.699,15.584c-0.547,0-0.99,0.185-1.33,0.556
	c-0.342,0.369-0.561,0.899-0.654,1.59h3.836v-0.221c-0.014-0.613-0.178-1.087-0.496-1.423
	C145.736,15.751,145.285,15.584,144.699,15.584z"/>
<path fill="#222222" d="M155.961,16.136c-0.375-0.05-0.705-0.076-0.992-0.076c-1.043,0-1.727,0.354-2.051,1.06v6.756h-2.758V13.551
	h2.605l0.076,1.23c0.553-0.947,1.318-1.421,2.299-1.421c0.305,0,0.592,0.041,0.859,0.123L155.961,16.136z"/>
<path fill="#006666" d="M3.244,13.099c0,0,0,0,0.008,0c0.988-0.002,1.875-0.374,2.477-0.977c0.434-0.433,0.715-0.988,0.762-1.595
	h11.951c0.055,0,0.107-0.028,0.139-0.074c0.021-0.029,0.031-0.063,0.031-0.098c0-0.02-0.002-0.038-0.01-0.057
	c-0.002-0.009-0.127-0.363-0.396-0.727c-0.266-0.36-0.691-0.748-1.295-0.753c-0.014-0.002-0.018-0.002-0.018-0.002
	c-0.805,0-3.959-0.261-6.188-0.384L9.172,5.832c0.502-0.353,0.838-0.877,0.99-1.471c0.064-0.252,0.098-0.518,0.098-0.788
	c0-0.611-0.168-1.25-0.514-1.841C9.104,0.641,8.016,0.001,6.953,0C6.525,0,6.1,0.106,5.719,0.331C5.129,0.677,4.742,1.245,4.572,1.9
	C4.508,2.151,4.475,2.417,4.475,2.688c0,0.61,0.166,1.252,0.514,1.842c0.219,0.373,0.49,0.688,0.793,0.947
	c0.006,0.008,0.014,0.015,0.021,0.021C5.818,5.51,5.846,5.533,5.877,5.558c1.666,1.311,2.391,2.369,2.705,3.049
	c-0.133,0.013-0.281,0.02-0.447,0.021c-0.771,0-1.928-0.171-3.553-0.805C4.543,7.808,4.51,7.799,4.5,7.792
	C4.486,7.787,4.471,7.782,4.457,7.78C4.08,7.651,3.674,7.583,3.244,7.579C2.258,7.586,1.369,7.96,0.77,8.558
	C0.293,9.034-0.002,9.654,0,10.334v0.01C0.008,11.888,1.471,13.101,3.244,13.099z M7.775,4.533C7.354,4.539,6.809,4.209,6.482,3.652
	c-0.184-0.31-0.277-0.656-0.277-0.971c0-0.121,0.014-0.237,0.041-0.346C6.295,2.16,6.391,1.943,6.598,1.825
	c0.105-0.062,0.229-0.094,0.363-0.094c0.422-0.003,0.967,0.326,1.291,0.88C8.436,2.922,8.531,3.26,8.531,3.572
	c0,0.123-0.016,0.243-0.045,0.355C8.443,4.102,8.344,4.32,8.141,4.44l0,0C8.033,4.503,7.91,4.533,7.775,4.533z M3.256,11.365
	c-0.004,0-0.01,0-0.016,0c-0.42,0-0.809-0.129-1.082-0.324c-0.271-0.194-0.424-0.442-0.426-0.694V10.33
	c0-0.23,0.137-0.424,0.264-0.554c0.277-0.28,0.748-0.462,1.244-0.464c0.004,0,0.008,0,0.01,0s0.006,0,0.008,0
	c0.422,0.002,0.809,0.13,1.08,0.324c0.277,0.197,0.432,0.448,0.432,0.702c-0.002,0.24-0.137,0.435-0.264,0.562l0.117,0.121
	L4.504,10.9c-0.289,0.288-0.742,0.465-1.246,0.465H3.256z M0,10.344v-0.003C0,10.348,0,10.347,0,10.344z"/>
<rect x="20.17" y="23.198" fill="#006666" width="9.301" height="9.171"/>
<rect x="20.17" y="12.211" fill="#009966" width="9.301" height="9.301"/>
<rect x="9.313" y="12.211" fill="#00CC66" width="9.301" height="9.301"/>
<path fill="#009966" d="M18.484,32.369h-7.369c-0.996,0-1.803-0.807-1.803-1.803v-7.368h9.172V32.369z"/>
<path fill="#006666" d="M40.328,10.525V3.157c0-0.995-0.807-1.803-1.803-1.803h-7.369v9.171H40.328z"/>
<rect x="20.17" y="1.354" fill="#00CC66" width="9.301" height="9.171"/>
<path fill="#009966" d="M31.156,32.369h7.369c0.996,0,1.803-0.807,1.803-1.803v-7.368h-9.172V32.369z"/>
<rect x="31.156" y="12.211" fill="#00CC66" width="9.172" height="9.301"/>
</svg>
