<?xml version="1.0" encoding="utf-8"?>
<!-- Generator: Adobe Illustrator 13.0.0, SVG Export Plug-In  -->
<!DOCTYPE svg PUBLIC "-//W3C//DTD SVG 1.1//EN" "http://www.w3.org/Graphics/SVG/1.1/DTD/svg11.dtd" [
	<!ENTITY ns_flows "http://ns.adobe.com/Flows/1.0/">
]>
<svg version="1.1"
	 xmlns="http://www.w3.org/2000/svg" xmlns:xlink="http://www.w3.org/1999/xlink" xmlns:a="http://ns.adobe.com/AdobeSVGViewerExtensions/3.0/"
	 x="0px" y="0px" width="184px" height="28px" viewBox="0 0 184 28" enable-background="new 0 0 184 28" xml:space="preserve">
<defs>
</defs>
<path fill="#999999" d="M56.492,2.23l-4.707,2.905C49.222,2.003,45.326,0,40.965,0c-5.443,0-10.153,3.112-12.46,7.651l4.761,3.723
	l6.716,5.197c0.339,0.222,0.729,0.333,1.116,0.333c0.399,0,0.798-0.119,1.146-0.351l8.709-6.854
	c0.563,1.312,0.874,2.752,0.876,4.271c-0.009,5.999-4.863,10.855-10.863,10.866c-6-0.011-10.855-4.867-10.866-10.866
	c0-0.138,0.007-0.274,0.013-0.41l-3.034-1.092c-0.054,0.492-0.083,0.993-0.083,1.502v0.048c0,7.717,6.257,13.975,13.977,13.975
	c7.718,0,13.975-6.258,13.977-13.975c0-0.465-0.031-0.921-0.076-1.374c-0.01-0.09-0.02-0.174-0.028-0.262
	c-0.019-0.156-0.037-0.315-0.06-0.471c-0.042-0.275-0.089-0.549-0.146-0.82l-0.002-0.01c-0.247-1.183-0.65-2.306-1.176-3.358
	l4.389-3.454C57.438,3.561,56.985,2.88,56.492,2.23z M41.077,12.391l-8.352-5.481c1.997-2.314,4.948-3.784,8.245-3.792
	c3.266,0.008,6.187,1.45,8.184,3.727c0.013,0.015,0.026,0.031,0.043,0.048L41.077,12.391z M178.422,8.364
	c-2.716,0-4.773,0.966-5.923,3.205V8.485h-3.473v16.076h3.473v-8.553c0.243-2.507,1.904-4.352,4.564-4.38
	c2.417,0,3.868,1.479,3.868,3.896v9.036h3.474V14.558C184.405,10.72,182.17,8.364,178.422,8.364z M132.271,21.689
	c-2.78,0-4.773-2.085-4.773-5.138c0-3.05,1.993-5.137,4.773-5.137c1.935-0.026,3.474,0.665,4.593,1.815l1.902-2.236
	c-1.478-1.694-3.746-2.63-6.646-2.63c-4.775,0-8.099,3.326-8.099,8.188c0,4.834,3.323,8.128,8.099,8.128
	c3.052,0,5.38-1.086,6.829-2.99l-1.935-1.936C135.927,21.025,134.293,21.689,132.271,21.689z M144.549,11.69V8.485h-3.473v16.076
	h3.473v-8.402c0.273-2.749,2.325-4.652,5.56-4.469V8.364C147.572,8.364,145.637,9.512,144.549,11.69z M72.531,3.408h-8.428v21.153
	h3.563v-6.377h4.864c5.317,0,8.371-2.779,8.371-7.555C80.902,6.037,77.849,3.408,72.531,3.408z M72.381,14.981h-4.714v-8.37h4.714
	c3.263,0,5.107,1.331,5.107,4.108C77.488,13.591,75.644,14.981,72.381,14.981z M158.854,8.364c-4.986,0-8.399,3.293-8.399,8.159
	c0,4.835,3.413,8.156,8.399,8.156c4.956,0,8.369-3.321,8.369-8.156C167.223,11.657,163.81,8.364,158.854,8.364z M158.854,21.779
	c-2.901,0-4.925-2.112-4.925-5.228c0-3.082,2.023-5.194,4.925-5.194c2.872,0,4.896,2.112,4.896,5.194
	C163.749,19.667,161.726,21.779,158.854,21.779z M103.095,12.717c0-1.147,0.997-1.601,2.358-1.601c1.407,0,3.169,0.533,4.583,1.396
	l0.586-2.99c-1.392-0.753-3.188-1.188-4.898-1.188c-3.082,0-5.923,1.391-5.923,4.653c-0.027,5.802,8.433,3.96,8.433,7.252
	c0,1.209-1.148,1.725-2.628,1.725c-1.729,0-3.926-0.738-5.32-1.945l-0.585,2.99c1.581,1.088,3.723,1.672,5.753,1.672
	c3.232,0,6.164-1.48,6.164-4.772C111.646,14.074,103.095,15.676,103.095,12.717z M90.102,8.364c-4.986,0-8.399,3.293-8.399,8.159
	c0,4.835,3.413,8.156,8.399,8.156c4.955,0,8.369-3.321,8.369-8.156C98.471,11.657,95.057,8.364,90.102,8.364z M90.102,21.779
	c-2.903,0-4.924-2.112-4.924-5.228c0-3.082,2.021-5.194,4.924-5.194c2.869,0,4.895,2.112,4.895,5.194
	C94.996,19.667,92.971,21.779,90.102,21.779z M123.092,12.659l0.483-3.082h-5.229V5.812l-3.442,0.485v3.28h-1.778l-0.49,3.082h2.269
	v7.368c0,3.293,2.084,4.683,4.501,4.683c1.361,0,2.69-0.423,3.958-1.178l-0.877-2.659c-0.936,0.452-1.691,0.697-2.415,0.697
	c-1.087,0-1.725-0.515-1.725-2.178v-6.733H123.092z"/>
<path fill="#999999" d="M5.684,6.395c2.711,0,4.394,1.232,4.394,3.271c0,1.476-0.878,2.578-2.301,2.914
	c1.759,0.302,2.805,1.553,2.805,3.312c0,2.242-1.813,3.588-4.767,3.588H0V6.395H5.684z M2.206,11.814h3.365
	c1.401,0,2.244-0.654,2.244-1.755c0-1.104-0.843-1.702-2.244-1.702H2.206V11.814z M2.206,17.518h3.365
	c1.72,0,2.747-0.674,2.747-1.907c0-1.158-1.027-1.851-2.747-1.851H2.206V17.518z"/>
<path fill="#999999" d="M16.972,20.844c-0.618,1.572-1.739,2.355-3.236,2.355c-0.896,0-1.607-0.261-2.298-0.84l0.916-1.665
	c0.468,0.337,0.841,0.485,1.289,0.485c0.655,0,1.179-0.354,1.515-1.103l0.337-0.746l-4.113-9.797h2.224l2.974,7.534l2.767-7.534
	h2.149L16.972,20.844z"/>
</svg>
