<?xml version="1.0" encoding="utf-8"?>
<!-- Generator: Adobe Illustrator 13.0.0, SVG Export Plug-In  -->
<!DOCTYPE svg PUBLIC "-//W3C//DTD SVG 1.1//EN" "http://www.w3.org/Graphics/SVG/1.1/DTD/svg11.dtd" [
	<!ENTITY ns_flows "http://ns.adobe.com/Flows/1.0/">
]>
<svg version="1.1"
	 xmlns="http://www.w3.org/2000/svg" xmlns:xlink="http://www.w3.org/1999/xlink" xmlns:a="http://ns.adobe.com/AdobeSVGViewerExtensions/3.0/"
	 x="0px" y="0px" width="156px" height="32px" viewBox="0 -0.581 156 32" enable-background="new 0 -0.581 156 32"
	 xml:space="preserve">
<defs>
</defs>
<path fill="#222222" d="M51.324,23.445h-2.811V9.803h2.811V23.445z"/>
<path fill="#222222" d="M55.638,13.308l0.084,1.134c0.718-0.881,1.69-1.321,2.914-1.321c1.306,0,2.202,0.515,2.689,1.546
	c0.712-1.031,1.728-1.546,3.045-1.546c1.099,0,1.917,0.32,2.455,0.96c0.537,0.641,0.806,1.604,0.806,2.891v6.475h-2.717V16.98
	c0-0.575-0.112-0.995-0.337-1.26c-0.225-0.266-0.622-0.398-1.19-0.398c-0.812,0-1.374,0.387-1.687,1.162l0.009,6.962h-2.708v-6.456
	c0-0.587-0.116-1.012-0.347-1.274c-0.231-0.262-0.625-0.394-1.18-0.394c-0.769,0-1.325,0.319-1.668,0.956v7.168h-2.708V13.308
	H55.638z"/>
<path fill="#222222" d="M74.934,23.445c-0.125-0.243-0.216-0.546-0.272-0.909c-0.656,0.731-1.508,1.097-2.558,1.097
	c-0.994,0-1.816-0.287-2.469-0.862c-0.653-0.574-0.979-1.299-0.979-2.174c0-1.074,0.398-1.898,1.194-2.473
	c0.797-0.575,1.947-0.865,3.453-0.872h1.246v-0.581c0-0.469-0.121-0.843-0.361-1.124c-0.24-0.281-0.62-0.422-1.138-0.422
	c-0.456,0-0.814,0.109-1.073,0.328c-0.26,0.219-0.389,0.519-0.389,0.899h-2.708c0-0.587,0.181-1.13,0.543-1.63
	c0.362-0.5,0.875-0.892,1.537-1.176c0.662-0.284,1.405-0.426,2.23-0.426c1.249,0,2.241,0.313,2.975,0.941s1.101,1.51,1.101,2.646
	v4.395c0.006,0.963,0.141,1.69,0.403,2.184v0.159H74.934z M72.694,21.562c0.4,0,0.769-0.088,1.106-0.267
	c0.337-0.178,0.587-0.417,0.75-0.717v-1.743h-1.012c-1.356,0-2.077,0.469-2.165,1.406l-0.01,0.159c0,0.337,0.119,0.615,0.356,0.834
	C71.958,21.453,72.282,21.562,72.694,21.562z"/>
<path fill="#222222" d="M78.301,18.302c0-1.556,0.371-2.808,1.111-3.758c0.74-0.949,1.737-1.424,2.993-1.424
	c1.112,0,1.978,0.381,2.595,1.143l0.113-0.956h2.455v9.801c0,0.887-0.201,1.658-0.604,2.314c-0.403,0.655-0.97,1.155-1.7,1.499
	c-0.731,0.343-1.588,0.515-2.568,0.515c-0.743,0-1.468-0.148-2.174-0.444c-0.705-0.297-1.24-0.68-1.602-1.147l1.199-1.649
	c0.674,0.755,1.492,1.134,2.455,1.134c0.718,0,1.277-0.192,1.677-0.576c0.399-0.385,0.6-0.93,0.6-1.635v-0.544
	c-0.624,0.706-1.446,1.059-2.464,1.059c-1.219,0-2.203-0.476-2.957-1.429c-0.752-0.953-1.128-2.216-1.128-3.79V18.302z
	 M81.009,18.503c0,0.92,0.185,1.641,0.554,2.163c0.367,0.522,0.874,0.784,1.518,0.784c0.824,0,1.414-0.311,1.771-0.93v-4.27
	c-0.362-0.619-0.946-0.929-1.752-0.929c-0.649,0-1.161,0.266-1.532,0.798C81.195,16.651,81.009,17.446,81.009,18.503z"/>
<path fill="#222222" d="M93.662,23.633c-1.486,0-2.697-0.456-3.631-1.368s-1.4-2.127-1.4-3.645v-0.262
	c0-1.019,0.196-1.93,0.59-2.732c0.394-0.803,0.951-1.421,1.672-1.855c0.723-0.434,1.545-0.651,2.469-0.651
	c1.387,0,2.479,0.437,3.275,1.312s1.195,2.114,1.195,3.72v1.105h-6.457c0.088,0.662,0.352,1.193,0.793,1.594
	c0.439,0.399,0.998,0.6,1.672,0.6c1.043,0,1.858-0.379,2.445-1.135l1.33,1.49c-0.405,0.574-0.955,1.023-1.648,1.345
	S94.506,23.633,93.662,23.633z M93.353,15.303c-0.537,0-0.973,0.182-1.308,0.546c-0.334,0.364-0.547,0.884-0.641,1.562h3.766v-0.217
	c-0.012-0.602-0.174-1.067-0.486-1.397S93.928,15.303,93.353,15.303z"/>
<path fill="#222222" d="M105.968,19.866c0-0.531-0.187-0.938-0.562-1.223s-1.051-0.584-2.024-0.899
	c-0.975-0.315-1.746-0.626-2.314-0.933c-1.55-0.837-2.323-1.964-2.323-3.382c0-0.737,0.207-1.395,0.623-1.972
	c0.415-0.578,1.012-1.029,1.789-1.354s1.65-0.487,2.619-0.487c0.975,0,1.843,0.176,2.604,0.529c0.763,0.353,1.354,0.851,1.776,1.495
	c0.421,0.643,0.632,1.374,0.632,2.192h-2.812c0-0.625-0.195-1.11-0.59-1.457c-0.393-0.347-0.946-0.52-1.658-0.52
	c-0.688,0-1.221,0.145-1.603,0.436c-0.381,0.291-0.571,0.673-0.571,1.148c0,0.444,0.223,0.815,0.67,1.115s1.104,0.581,1.973,0.843
	c1.599,0.481,2.764,1.077,3.494,1.79c0.731,0.712,1.097,1.6,1.097,2.661c0,1.181-0.446,2.106-1.34,2.778s-2.096,1.007-3.607,1.007
	c-1.05,0-2.005-0.192-2.867-0.576s-1.52-0.91-1.972-1.579c-0.453-0.668-0.68-1.443-0.68-2.324h2.82c0,1.506,0.899,2.259,2.698,2.259
	c0.669,0,1.19-0.136,1.565-0.407S105.968,20.354,105.968,19.866z"/>
<path fill="#222222" d="M118.986,18.47c0,1.563-0.355,2.813-1.063,3.753c-0.71,0.94-1.667,1.41-2.872,1.41
	c-1.024,0-1.852-0.356-2.482-1.068v4.778h-2.709V13.308h2.512l0.094,0.993c0.656-0.787,1.512-1.18,2.567-1.18
	c1.249,0,2.22,0.462,2.914,1.386c0.692,0.925,1.04,2.2,1.04,3.823V18.47z M116.278,18.273c0-0.943-0.167-1.671-0.501-2.183
	c-0.334-0.513-0.82-0.769-1.457-0.769c-0.85,0-1.434,0.325-1.752,0.974v4.151c0.33,0.669,0.921,1.003,1.771,1.003
	C115.632,21.45,116.278,20.392,116.278,18.273z"/>
<path fill="#222222" d="M122.869,23.445h-2.718V9.053h2.718V23.445z"/>
<path fill="#222222" d="M124.428,10.684c0-0.406,0.136-0.74,0.407-1.002c0.272-0.262,0.642-0.394,1.11-0.394
	c0.463,0,0.83,0.131,1.105,0.394s0.412,0.597,0.412,1.002c0,0.413-0.139,0.75-0.416,1.012c-0.278,0.262-0.646,0.393-1.102,0.393
	s-0.823-0.131-1.102-0.393C124.566,11.434,124.428,11.096,124.428,10.684z M127.305,23.445h-2.718V13.308h2.718V23.445z"/>
<path fill="#222222" d="M132.123,10.815v2.493h1.734v1.986h-1.734v5.06c0,0.374,0.072,0.644,0.216,0.806s0.419,0.244,0.825,0.244
	c0.299,0,0.564-0.021,0.796-0.066v2.053c-0.53,0.162-1.077,0.243-1.64,0.243c-1.898,0-2.867-0.959-2.904-2.876v-5.463h-1.48v-1.986
	h1.48v-2.493H132.123z"/>
<path fill="#222222" d="M137.955,10.815v2.493h1.733v1.986h-1.733v5.06c0,0.374,0.072,0.644,0.216,0.806s0.419,0.244,0.824,0.244
	c0.3,0,0.565-0.021,0.796-0.066v2.053c-0.53,0.162-1.076,0.243-1.639,0.243c-1.899,0-2.867-0.959-2.905-2.876v-5.463h-1.48v-1.986
	h1.48v-2.493H137.955z"/>
<path fill="#222222" d="M145.211,23.633c-1.486,0-2.697-0.456-3.631-1.368s-1.4-2.127-1.4-3.645v-0.262
	c0-1.019,0.196-1.93,0.59-2.732c0.394-0.803,0.951-1.421,1.672-1.855c0.723-0.434,1.545-0.651,2.47-0.651
	c1.387,0,2.478,0.437,3.274,1.312s1.195,2.114,1.195,3.72v1.105h-6.456c0.087,0.662,0.351,1.193,0.792,1.594
	c0.439,0.399,0.998,0.6,1.672,0.6c1.043,0,1.858-0.379,2.445-1.135l1.331,1.49c-0.406,0.574-0.956,1.023-1.649,1.345
	S146.055,23.633,145.211,23.633z M144.901,15.303c-0.537,0-0.973,0.182-1.307,0.546c-0.335,0.364-0.548,0.884-0.642,1.562h3.766
	v-0.217c-0.012-0.602-0.174-1.067-0.486-1.397S145.477,15.303,144.901,15.303z"/>
<path fill="#222222" d="M155.961,15.847c-0.368-0.05-0.693-0.075-0.974-0.075c-1.024,0-1.696,0.347-2.015,1.04v6.634h-2.708V13.308
	h2.558l0.075,1.208c0.544-0.931,1.296-1.396,2.259-1.396c0.299,0,0.58,0.041,0.843,0.122L155.961,15.847z"/>
<path fill="#006666" d="M3.187,12.864c0,0,0,0,0.008,0c0.969-0.003,1.841-0.369,2.432-0.96c0.426-0.425,0.702-0.97,0.748-1.567
	h11.736c0.055,0,0.106-0.027,0.137-0.072c0.02-0.028,0.031-0.062,0.031-0.097c0-0.019-0.003-0.037-0.01-0.055
	c-0.003-0.01-0.126-0.357-0.39-0.714c-0.261-0.353-0.679-0.734-1.272-0.74c-0.012-0.001-0.017,0-0.017,0
	c-0.79,0-3.887-0.256-6.077-0.378L9.008,5.727c0.493-0.345,0.823-0.86,0.973-1.443c0.063-0.249,0.096-0.509,0.096-0.774
	c0-0.6-0.165-1.228-0.505-1.808C8.939,0.63,7.872,0.001,6.83,0C6.408,0,5.991,0.104,5.616,0.325
	c-0.578,0.34-0.958,0.898-1.125,1.541C4.427,2.113,4.395,2.373,4.395,2.64c0,0.6,0.164,1.229,0.504,1.809
	C5.114,4.815,5.38,5.124,5.678,5.378C5.685,5.386,5.691,5.393,5.7,5.398c0.016,0.012,0.042,0.034,0.072,0.06
	c1.636,1.286,2.346,2.327,2.656,2.993C8.299,8.464,8.152,8.472,7.989,8.472c-0.759,0-1.893-0.167-3.489-0.79
	C4.462,7.668,4.431,7.658,4.42,7.653C4.406,7.646,4.392,7.642,4.377,7.64c-0.37-0.125-0.769-0.193-1.19-0.196
	C2.216,7.45,1.345,7.816,0.755,8.404C0.289,8.871,0,9.481,0,10.149c0,0.004,0,0.007,0,0.009C0.009,11.674,1.445,12.865,3.187,12.864
	z M7.637,4.452c-0.416,0.005-0.951-0.318-1.27-0.866C6.188,3.283,6.093,2.941,6.093,2.633c0-0.119,0.015-0.233,0.042-0.339
	c0.046-0.172,0.142-0.385,0.344-0.501c0.104-0.062,0.224-0.092,0.357-0.092c0.414-0.004,0.95,0.321,1.268,0.863
	C8.286,2.87,8.378,3.202,8.378,3.508c0,0.121-0.014,0.238-0.043,0.349c-0.042,0.171-0.141,0.385-0.34,0.504l0,0
	C7.889,4.422,7.77,4.452,7.637,4.452z M3.197,11.161c-0.004,0-0.009,0-0.014,0c-0.414,0-0.794-0.125-1.062-0.317
	c-0.268-0.191-0.417-0.436-0.418-0.683c0-0.005,0-0.011,0-0.016c0-0.227,0.134-0.417,0.258-0.543
	c0.271-0.276,0.735-0.454,1.221-0.456c0.003,0,0.007,0,0.01,0c0.002,0,0.005,0,0.008,0c0.414,0.001,0.793,0.127,1.061,0.318
	c0.272,0.193,0.423,0.441,0.424,0.689c-0.002,0.236-0.134,0.428-0.26,0.552l0.118,0.119l-0.118-0.119
	c-0.284,0.284-0.729,0.457-1.223,0.457H3.197z M0,10.158c0-0.001,0-0.002,0-0.002C0,10.162,0,10.161,0,10.158z"/>
<rect x="19.808" y="22.782" fill="#006666" width="9.134" height="9.006"/>
<rect x="19.809" y="11.992" fill="#009966" width="9.133" height="9.134"/>
<rect x="9.146" y="11.992" fill="#00CC66" width="9.133" height="9.134"/>
<path fill="#009966" d="M18.153,31.788h-7.236c-0.978,0-1.77-0.793-1.77-1.771v-7.235h9.006V31.788z"/>
<path fill="#006666" d="M39.604,10.336V3.1c0-0.978-0.792-1.77-1.771-1.77h-7.236v9.006H39.604z"/>
<rect x="19.809" y="1.33" fill="#00CC66" width="9.133" height="9.006"/>
<path fill="#009966" d="M30.598,31.788h7.236c0.979,0,1.771-0.793,1.771-1.771v-7.235h-9.006V31.788z"/>
<rect x="30.598" y="11.992" fill="#00CC66" width="9.006" height="9.134"/>
</svg>
