<?xml version="1.0" encoding="utf-8"?>
<!-- Generator: Adobe Illustrator 13.0.0, SVG Export Plug-In  -->
<!DOCTYPE svg PUBLIC "-//W3C//DTD SVG 1.1//EN" "http://www.w3.org/Graphics/SVG/1.1/DTD/svg11.dtd" [
	<!ENTITY ns_flows "http://ns.adobe.com/Flows/1.0/">
]>
<svg version="1.1"
	 xmlns="http://www.w3.org/2000/svg" xmlns:xlink="http://www.w3.org/1999/xlink" xmlns:a="http://ns.adobe.com/AdobeSVGViewerExtensions/3.0/"
	 x="0px" y="0px" width="882px" height="43px" viewBox="0 0 882 43" enable-background="new 0 0 882 43" xml:space="preserve">
<defs>
</defs>
<path fill="#00DC00" d="M618.787,27.508c-0.553,0-1.001-0.448-1.001-1l0,0c0-0.553,0.448-1.001,1.001-1.001l0,0h211.372
	c0.551,0,0.999,0.448,0.999,1.001l0,0c0,0.552-0.448,1-0.999,1l0,0H618.787L618.787,27.508z"/>
<path fill="#00DC00" d="M555.786,27.508c-0.552,0-0.999-0.448-0.999-1l0,0c0-0.554,0.447-1.001,0.999-1.001l0,0h50.001
	c0.552,0,1,0.447,1,1.001l0,0c0,0.552-0.448,1-1,1l0,0H555.786L555.786,27.508z"/>
<path fill="#00DC00" d="M43.359,27.506c-0.552,0-1-0.447-1-0.999l0,0c0-0.552,0.448-0.999,1-0.999l0,0h501.427
	c0.552,0,1.002,0.447,1.002,0.999l0,0c0,0.552-0.45,0.999-1.002,0.999l0,0H43.359L43.359,27.506z"/>
<path fill="#04B504" d="M750.454,38.173c-0.552,0-0.998-0.447-0.998-0.999l0,0c0-0.554,0.446-1.001,0.998-1.001l0,0h19.631
	c0.552,0,1.001,0.447,1.001,1.001l0,0c0,0.552-0.449,0.999-1.001,0.999l0,0H750.454L750.454,38.173z"/>
<path fill="#04B504" d="M458.345,38.173c-0.552,0-0.999-0.448-0.999-0.999l0,0c0-0.552,0.447-1.001,0.999-1.001l0,0h224
	c0.552,0,1.001,0.449,1.001,1.001l0,0c0,0.551-0.449,0.999-1.001,0.999l0,0H458.345L458.345,38.173z"/>
<path fill="#04B504" d="M252.787,38.174c-0.552,0-0.999-0.448-0.999-1.001l0,0c0-0.552,0.447-0.999,0.999-0.999l0,0h17
	c0.552,0,1.001,0.447,1.001,0.999l0,0c0,0.553-0.449,1.001-1.001,1.001l0,0H252.787L252.787,38.174z"/>
<path fill="#04B504" d="M103.431,38.174c-0.552,0-1-0.448-1-1.001l0,0c0-0.552,0.447-0.999,1-0.999l0,0h137.356
	c0.552,0,1.001,0.447,1.001,0.999l0,0c0,0.553-0.449,1.001-1.001,1.001l0,0H103.431L103.431,38.174z"/>
<path fill="#04B504" d="M24.027,27.508c-0.554,0-1-0.448-1-1l0,0c0-0.554,0.446-1,1-1l0,0h12.093c0.552,0,1,0.446,1,1l0,0
	c0,0.552-0.448,1-1,1l0,0H24.027L24.027,27.508z"/>
<path fill="#04B504" d="M838.754,27.508c-0.553,0-1.001-0.448-1.001-1.001l0,0c0-0.552,0.448-1,1.001-1l0,0h3.575
	c0.553,0,1.001,0.448,1.001,1l0,0c0,0.553-0.448,1.001-1.001,1.001l0,0H838.754L838.754,27.508z"/>
<path fill="#00DC00" d="M125.986,17.852c-0.553,0-1-0.448-1-0.999l0,0c0-0.553,0.448-1.001,1-1.001l0,0h30.801
	c0.553,0,1,0.448,1,1.001l0,0c0,0.551-0.448,0.999-1,0.999l0,0H125.986L125.986,17.852z"/>
<path fill="#00CC00" d="M6.192,25.001c0,0,0,0,0.016,0c1.883-0.003,3.577-0.714,4.726-1.864c0.828-0.825,1.365-1.886,1.454-3.043
	h22.812c0.104,0,0.205-0.055,0.263-0.141c0.042-0.058,0.062-0.124,0.062-0.188c0-0.038-0.006-0.072-0.02-0.108
	c-0.006-0.017-0.244-0.694-0.758-1.388c-0.505-0.688-1.318-1.426-2.471-1.436c-0.025-0.004-0.034-0.004-0.034-0.004
	c-1.534,0-7.556-0.497-11.81-0.732l-2.928-4.966c0.959-0.673,1.601-1.673,1.89-2.807c0.125-0.481,0.188-0.988,0.188-1.504
	c0-1.167-0.32-2.387-0.98-3.515C17.374,1.224,15.3,0.003,13.271,0c-0.817,0-1.628,0.204-2.356,0.633
	c-1.125,0.66-1.863,1.745-2.187,2.995C8.604,4.107,8.541,4.614,8.541,5.131c0,1.165,0.318,2.39,0.979,3.516
	c0.418,0.711,0.937,1.313,1.514,1.807c0.013,0.016,0.027,0.029,0.042,0.039c0.03,0.025,0.083,0.069,0.143,0.116
	c3.181,2.502,4.563,4.522,5.163,5.819c-0.253,0.024-0.537,0.037-0.855,0.039c-1.474,0-3.677-0.326-6.781-1.535
	c-0.074-0.028-0.136-0.045-0.154-0.06c-0.027-0.009-0.056-0.018-0.083-0.022c-0.718-0.245-1.495-0.375-2.314-0.383
	c-1.883,0.013-3.581,0.727-4.726,1.867C0.561,17.244-0.004,18.428,0,19.725v0.019C0.015,22.689,2.807,25.005,6.192,25.001z
	 M14.842,8.653c-0.809,0.012-1.848-0.619-2.469-1.681c-0.351-0.591-0.531-1.254-0.531-1.854c0-0.232,0.027-0.453,0.081-0.66
	c0.091-0.335,0.275-0.749,0.669-0.975c0.203-0.117,0.437-0.179,0.691-0.179c0.807-0.006,1.85,0.622,2.465,1.681
	c0.353,0.592,0.533,1.234,0.533,1.832c0,0.235-0.027,0.465-0.083,0.679c-0.083,0.332-0.274,0.749-0.66,0.979l0,0
	C15.332,8.595,15.099,8.653,14.842,8.653z M6.214,21.691c-0.009,0-0.017,0-0.029,0c-0.803,0-1.544-0.244-2.065-0.618
	c-0.519-0.37-0.808-0.843-0.812-1.324c0-0.012,0-0.021,0-0.032c0-0.439,0.261-0.809,0.503-1.057
	c0.526-0.534,1.429-0.882,2.371-0.885c0.009,0,0.018,0,0.021,0c0.005,0,0.011,0,0.016,0c0.802,0.003,1.541,0.246,2.061,0.618
	c0.529,0.376,0.822,0.856,0.824,1.341c-0.002,0.458-0.264,0.828-0.506,1.07l0.228,0.231l-0.229-0.231
	c-0.552,0.55-1.418,0.887-2.377,0.887H6.214z M0,19.743v-0.006C0,19.751,0,19.749,0,19.743z"/>
<path fill="#04B504" d="M858.105,26.479c0-0.519-0.422-0.939-0.941-0.939h-6.5c-0.521,0-0.939,0.421-0.939,0.939
	s0.418,0.94,0.939,0.94h6.5C857.684,27.419,858.105,26.997,858.105,26.479z M881.365,25.539h-6.42c-0.52,0-0.939,0.421-0.939,0.94
	s0.42,0.939,0.939,0.939h6.42c0.518,0,0.941-0.42,0.941-0.939S881.883,25.539,881.365,25.539z M866.016,10.187
	c-0.521,0-0.939,0.421-0.939,0.941v6.109c0,0.519,0.418,0.94,0.939,0.94c0.518,0,0.939-0.422,0.939-0.94v-6.109
	C866.955,10.607,866.533,10.187,866.016,10.187z M866.016,34.24c-0.521,0-0.939,0.418-0.939,0.938v6.653
	c0,0.521,0.418,0.94,0.939,0.94c0.518,0,0.939-0.42,0.939-0.94v-6.653C866.955,34.658,866.533,34.24,866.016,34.24z M858.502,20.296
	c0.184,0.184,0.424,0.274,0.664,0.274s0.482-0.091,0.666-0.274c0.367-0.367,0.367-0.964,0-1.331l-4.008-4.004
	c-0.365-0.367-0.961-0.367-1.33,0c-0.365,0.367-0.365,0.962,0,1.328L858.502,20.296z M872.781,31.899
	c-0.367-0.366-0.959-0.368-1.328-0.003c-0.369,0.366-0.371,0.959-0.004,1.328l4.748,4.78c0.184,0.185,0.426,0.276,0.666,0.276
	c0.238,0,0.479-0.091,0.662-0.273c0.367-0.365,0.371-0.962,0.004-1.329L872.781,31.899z M872.656,20.779
	c0.238,0,0.48-0.091,0.662-0.274l4.217-4.213c0.367-0.369,0.367-0.964,0-1.331s-0.963-0.367-1.328,0l-4.213,4.213
	c-0.371,0.369-0.371,0.966-0.004,1.331C872.174,20.688,872.414,20.779,872.656,20.779z M858.941,32.223l-4.447,4.445
	c-0.365,0.367-0.365,0.961,0,1.329c0.186,0.183,0.426,0.274,0.666,0.274c0.242,0,0.482-0.092,0.666-0.274l4.445-4.445
	c0.367-0.367,0.367-0.962,0-1.329C859.904,31.856,859.307,31.856,858.941,32.223z"/>
</svg>
