<?xml version="1.0" encoding="utf-8"?>
<!-- Generator: Adobe Illustrator 13.0.0, SVG Export Plug-In  -->
<!DOCTYPE svg PUBLIC "-//W3C//DTD SVG 1.1//EN" "http://www.w3.org/Graphics/SVG/1.1/DTD/svg11.dtd" [
	<!ENTITY ns_flows "http://ns.adobe.com/Flows/1.0/">
]>
<svg version="1.1"
	 xmlns="http://www.w3.org/2000/svg" xmlns:xlink="http://www.w3.org/1999/xlink" xmlns:a="http://ns.adobe.com/AdobeSVGViewerExtensions/3.0/"
	 x="0px" y="0px" width="27px" height="27px" viewBox="0 0 27 27" enable-background="new 0 0 27 27" xml:space="preserve">
<defs>
</defs>
<path fill="#009966" d="M6.939,13.489c0-0.43-0.35-0.776-0.779-0.776H0.779C0.348,12.713,0,13.06,0,13.489s0.348,0.779,0.779,0.779
	H6.16C6.59,14.269,6.939,13.919,6.939,13.489z M26.201,12.713h-5.318c-0.43,0-0.777,0.349-0.777,0.778s0.348,0.777,0.777,0.777
	h5.318c0.43,0,0.779-0.348,0.779-0.777S26.631,12.713,26.201,12.713z M13.49,0c-0.432,0-0.777,0.349-0.777,0.779v5.059
	c0,0.43,0.346,0.779,0.777,0.779c0.428,0,0.777-0.35,0.777-0.779V0.779C14.268,0.349,13.918,0,13.49,0z M13.49,19.915
	c-0.432,0-0.777,0.348-0.777,0.777v5.51c0,0.43,0.346,0.779,0.777,0.779c0.428,0,0.777-0.35,0.777-0.779v-5.51
	C14.268,20.263,13.918,19.915,13.49,19.915z M7.268,8.37C7.42,8.522,7.619,8.599,7.818,8.599s0.4-0.076,0.551-0.229
	c0.305-0.304,0.305-0.799,0-1.102L5.051,3.953c-0.303-0.304-0.795-0.304-1.102,0c-0.301,0.304-0.301,0.796,0,1.1L7.268,8.37z
	 M19.092,17.979c-0.303-0.305-0.793-0.307-1.1-0.004c-0.305,0.304-0.307,0.795-0.004,1.1l3.932,3.959
	c0.152,0.152,0.352,0.229,0.553,0.229c0.197,0,0.396-0.075,0.547-0.226c0.305-0.304,0.307-0.797,0.004-1.101L19.092,17.979z
	 M18.988,8.771c0.199,0,0.398-0.076,0.549-0.228l3.492-3.489c0.303-0.306,0.303-0.798,0-1.102c-0.305-0.304-0.797-0.304-1.1,0
	l-3.49,3.489c-0.307,0.305-0.307,0.798-0.002,1.102C18.588,8.695,18.789,8.771,18.988,8.771z M7.633,18.247l-3.682,3.68
	c-0.303,0.305-0.303,0.797,0,1.101c0.152,0.151,0.352,0.229,0.551,0.229s0.398-0.077,0.551-0.229l3.682-3.681
	c0.303-0.304,0.303-0.796,0-1.1C8.43,17.942,7.936,17.942,7.633,18.247z"/>
</svg>
